<?xml version="1.0" encoding="UTF-8" standalone="no" ?>
<!DOCTYPE svg PUBLIC "-//W3C//DTD SVG 1.1//EN" "http://www.w3.org/Graphics/SVG/1.1/DTD/svg11.dtd">
<svg xmlns="http://www.w3.org/2000/svg" xmlns:xlink="http://www.w3.org/1999/xlink" version="1.1" width="1280" height="1024" viewBox="0 0 1280 1024" xml:space="preserve">
<desc>Created with Fabric.js 3.1.0</desc>
<defs>
</defs>
<g transform="matrix(1.9692780337941629 0 0 1.9692780337941629 640.0153846153846 512.012312418764)" id="background-logo"  >
<rect style="stroke: none; stroke-width: 1; stroke-dasharray: none; stroke-linecap: butt; stroke-dashoffset: 0; stroke-linejoin: miter; stroke-miterlimit: 4; fill: rgb(44,52,68); fill-rule: nonzero; opacity: 1;"  paint-order="stroke"  x="-325" y="-260" rx="0" ry="0" width="650" height="520" />
</g>
<g transform="matrix(1.9692780337941629 0 0 1.9692780337941629 641.846813186813 750.1276052605458)" id="text-logo-path"  >
<path style="stroke: rgb(255,255,255); stroke-width: 0; stroke-dasharray: none; stroke-linecap: butt; stroke-dashoffset: 0; stroke-linejoin: miter; stroke-miterlimit: 10; fill: rgb(255,255,255); fill-rule: nonzero; opacity: 1;"  paint-order="stroke"  transform=" translate(-212.08499999999998, 25.485)" d="M 10.6 0 L 10.6 -65.1 L 37.11 -65.1 Q 47.43 -65.1 55.34 -60.96 Q 63.24 -56.82 67.61 -49.43 Q 71.98 -42.04 71.98 -32.55 L 71.98 -32.55 Q 71.98 -23.06 67.61 -15.67 Q 63.24 -8.28 55.34 -4.14 Q 47.43 0 37.11 0 L 37.11 0 L 10.6 0 Z M 17.48 -5.95 L 36.73 -5.95 Q 45.29 -5.95 51.71 -9.35 Q 58.13 -12.74 61.66 -18.74 Q 65.19 -24.74 65.19 -32.55 L 65.19 -32.55 Q 65.19 -40.36 61.66 -46.36 Q 58.13 -52.36 51.71 -55.75 Q 45.29 -59.15 36.73 -59.15 L 36.73 -59.15 L 17.48 -59.15 L 17.48 -5.95 Z M 86.03 0 L 86.03 -48.92 L 92.63 -48.92 L 92.63 0 L 86.03 0 Z M 89.37 -59.61 Q 87.33 -59.61 85.93 -61.01 Q 84.54 -62.4 84.54 -64.36 L 84.54 -64.36 Q 84.54 -66.22 85.93 -67.61 Q 87.33 -69.01 89.37 -69.01 L 89.37 -69.01 Q 91.42 -69.01 92.81 -67.66 Q 94.21 -66.31 94.21 -64.45 L 94.21 -64.45 Q 94.21 -62.4 92.81 -61.01 Q 91.42 -59.61 89.37 -59.61 L 89.37 -59.61 Z M 124.16 0.46 Q 118.2 0.46 112.76 -1.26 Q 107.32 -2.98 104.25 -5.58 L 104.25 -5.58 L 107.23 -10.79 Q 110.3 -8.37 114.95 -6.84 Q 119.6 -5.3 124.62 -5.3 L 124.62 -5.3 Q 131.32 -5.3 134.52 -7.39 Q 137.73 -9.49 137.73 -13.3 L 137.73 -13.3 Q 137.73 -16 135.97 -17.53 Q 134.2 -19.07 131.5 -19.86 Q 128.81 -20.65 124.34 -21.39 L 124.34 -21.39 Q 118.39 -22.51 114.76 -23.67 Q 111.13 -24.83 108.58 -27.62 Q 106.02 -30.41 106.02 -35.34 L 106.02 -35.34 Q 106.02 -41.48 111.13 -45.38 Q 116.25 -49.29 125.36 -49.29 L 125.36 -49.29 Q 130.11 -49.29 134.85 -48.03 Q 139.59 -46.78 142.66 -44.73 L 142.66 -44.73 L 139.78 -39.43 Q 133.73 -43.62 125.36 -43.62 L 125.36 -43.62 Q 119.04 -43.62 115.83 -41.38 Q 112.62 -39.15 112.62 -35.53 L 112.62 -35.53 Q 112.62 -32.74 114.44 -31.06 Q 116.25 -29.39 118.95 -28.6 Q 121.64 -27.81 126.39 -26.97 L 126.39 -26.97 Q 132.25 -25.85 135.78 -24.74 Q 139.31 -23.62 141.82 -20.93 Q 144.34 -18.23 144.34 -13.48 L 144.34 -13.48 Q 144.34 -7.07 138.99 -3.3 Q 133.64 0.46 124.16 0.46 L 124.16 0.46 Z M 181.72 -49.29 Q 188.6 -49.29 194.18 -46.17 Q 199.76 -43.06 202.93 -37.39 Q 206.09 -31.71 206.09 -24.46 L 206.09 -24.46 Q 206.09 -17.11 202.93 -11.44 Q 199.76 -5.77 194.23 -2.65 Q 188.7 0.46 181.72 0.46 L 181.72 0.46 Q 175.77 0.46 170.98 -2 Q 166.19 -4.46 163.12 -9.21 L 163.12 -9.21 L 163.12 18.04 L 156.52 18.04 L 156.52 -48.92 L 162.84 -48.92 L 162.84 -39.25 Q 165.82 -44.08 170.7 -46.69 Q 175.58 -49.29 181.72 -49.29 L 181.72 -49.29 Z M 181.26 -5.39 Q 186.37 -5.39 190.56 -7.77 Q 194.74 -10.14 197.11 -14.51 Q 199.48 -18.88 199.48 -24.46 L 199.48 -24.46 Q 199.48 -30.04 197.11 -34.36 Q 194.74 -38.69 190.56 -41.11 Q 186.37 -43.52 181.26 -43.52 L 181.26 -43.52 Q 176.05 -43.52 171.91 -41.11 Q 167.77 -38.69 165.4 -34.36 Q 163.03 -30.04 163.03 -24.46 L 163.03 -24.46 Q 163.03 -18.88 165.4 -14.51 Q 167.77 -10.14 171.91 -7.77 Q 176.05 -5.39 181.26 -5.39 L 181.26 -5.39 Z M 257.61 -48.92 L 264.21 -48.92 L 264.21 0 L 257.89 0 L 257.89 -9.67 Q 254.91 -4.74 250.03 -2.14 Q 245.15 0.46 239.01 0.46 L 239.01 0.46 Q 232.13 0.46 226.55 -2.7 Q 220.97 -5.86 217.81 -11.53 Q 214.64 -17.2 214.64 -24.46 L 214.64 -24.46 Q 214.64 -31.71 217.81 -37.39 Q 220.97 -43.06 226.55 -46.17 Q 232.13 -49.29 239.01 -49.29 L 239.01 -49.29 Q 244.96 -49.29 249.75 -46.83 Q 254.54 -44.36 257.61 -39.62 L 257.61 -39.62 L 257.61 -48.92 Z M 239.57 -5.39 Q 244.68 -5.39 248.82 -7.77 Q 252.96 -10.14 255.33 -14.51 Q 257.7 -18.88 257.7 -24.46 L 257.7 -24.46 Q 257.7 -30.04 255.33 -34.41 Q 252.96 -38.78 248.82 -41.15 Q 244.68 -43.52 239.57 -43.52 L 239.57 -43.52 Q 234.36 -43.52 230.22 -41.15 Q 226.08 -38.78 223.71 -34.41 Q 221.34 -30.04 221.34 -24.46 L 221.34 -24.46 Q 221.34 -18.88 223.71 -14.51 Q 226.08 -10.14 230.22 -7.77 Q 234.36 -5.39 239.57 -5.39 L 239.57 -5.39 Z M 304.39 -7.72 L 306.71 -2.98 Q 304.85 -1.3 302.16 -0.42 Q 299.46 0.46 296.48 0.46 L 296.48 0.46 Q 289.6 0.46 285.88 -3.25 Q 282.16 -6.97 282.16 -13.76 L 282.16 -13.76 L 282.16 -59.61 L 288.76 -59.61 L 288.76 -48.92 L 303.55 -48.92 L 303.55 -43.34 L 288.76 -43.34 L 288.76 -14.14 Q 288.76 -9.77 290.9 -7.49 Q 293.04 -5.21 297.13 -5.21 L 297.13 -5.21 Q 301.6 -5.21 304.39 -7.72 L 304.39 -7.72 Z M 337.22 0.46 Q 329.96 0.46 324.24 -2.7 Q 318.52 -5.86 315.27 -11.58 Q 312.01 -17.3 312.01 -24.46 L 312.01 -24.46 Q 312.01 -31.62 315.27 -37.29 Q 318.52 -42.97 324.24 -46.13 Q 329.96 -49.29 337.22 -49.29 L 337.22 -49.29 Q 343.54 -49.29 348.52 -46.83 Q 353.49 -44.36 356.38 -39.62 L 356.38 -39.62 L 351.45 -36.27 Q 349.03 -39.9 345.31 -41.71 Q 341.59 -43.52 337.22 -43.52 L 337.22 -43.52 Q 331.92 -43.52 327.69 -41.15 Q 323.45 -38.78 321.08 -34.41 Q 318.71 -30.04 318.71 -24.46 L 318.71 -24.46 Q 318.71 -18.79 321.08 -14.46 Q 323.45 -10.14 327.69 -7.77 Q 331.92 -5.39 337.22 -5.39 L 337.22 -5.39 Q 341.59 -5.39 345.31 -7.16 Q 349.03 -8.93 351.45 -12.55 L 351.45 -12.55 L 356.38 -9.21 Q 353.49 -4.46 348.47 -2 Q 343.45 0.46 337.22 0.46 L 337.22 0.46 Z M 393.48 -49.29 Q 402.69 -49.29 408.13 -43.94 Q 413.57 -38.59 413.57 -28.36 L 413.57 -28.36 L 413.57 0 L 406.97 0 L 406.97 -27.71 Q 406.97 -35.34 403.15 -39.34 Q 399.34 -43.34 392.27 -43.34 L 392.27 -43.34 Q 384.37 -43.34 379.77 -38.64 Q 375.16 -33.95 375.16 -25.67 L 375.16 -25.67 L 375.16 0 L 368.56 0 L 368.56 -69.01 L 375.16 -69.01 L 375.16 -40.36 Q 377.86 -44.64 382.6 -46.96 Q 387.34 -49.29 393.48 -49.29 L 393.48 -49.29 Z" stroke-linecap="round" />
</g>
<g transform="matrix(1.7200893054112059 0 0 1.7200893054112059 584.8253747597518 405.4296579989257)" style="" id="logo-logo"  >
	<g transform="matrix(0.48706333973128596 0 0 -0.48706333973128596 0.8082688793035118 -31.3367839667913)"  >
<path style="stroke: none; stroke-width: 1; stroke-dasharray: none; stroke-linecap: butt; stroke-dashoffset: 0; stroke-linejoin: miter; stroke-miterlimit: 10; fill: rgb(255,255,255); fill-rule: nonzero; opacity: 1;"  paint-order="stroke"  transform=" translate(-1065.4799999999998, -1556.435)" d="m 1023.99 1517.55 c -7.2 14.39 -21.72 43.21 -39.412 78.31 c -8.836 17.56 -18.496 36.69 -28.426 56.37 l -4.629 9.21 c 57.737 -46.6 102.777 -87.93 102.697 -87.96 c -0.52 -0.3 61.09 -52.85 116.56 -120.6 c 4.19 -5.26 8.42 -10.72 12.57 -16.31 c 23.6 -15.71 44.8 -34.75 56.23 -61.4 c 0.05 0 0.11 0 0.15 0 c -9.42 33.67 -32.77 63.09 -53.41 90.22 c -57.19 69.73 -119.17 122.32 -118.73 122.72 c 0.05 0.08 -176.36 149.59 -176.36 149.59 l 47.098 -94.46 c 9.934 -19.69 19.582 -38.81 28.43 -56.38 c 13.465 -26.68 25.097 -49.71 33.105 -65.53 c 7.367 -2.56 16.547 -5.82 27.107 -9.76 c -0.97 1.98 -1.96 3.95 -2.98 5.98" stroke-linecap="round" />
</g>
	<g transform="matrix(0.48706333973128596 0 0 -0.48706333973128596 114.63636868736495 66.68271699290165)"  >
<path style="stroke: none; stroke-width: 1; stroke-dasharray: none; stroke-linecap: butt; stroke-dashoffset: 0; stroke-linejoin: miter; stroke-miterlimit: 10; fill: rgb(255,255,255); fill-rule: nonzero; opacity: 1;"  paint-order="stroke"  transform=" translate(-1299.3600000000004, -1355.0349999999999)" d="m 1368.88 1296.41 l -62.11 124.11 l -59.52 -36.7 l 55.19 19.11 c 5.4 -10.85 41.2 -82.57 41.2 -82.57 c 0 0 0.06 -0.11 0.15 -0.29 c -5.63 2.48 -36.54 16.32 -36.54 16.32 l -77.41 -46.84 l 78.75 33.19 l 60.29 -26.33" stroke-linecap="round" />
</g>
	<g transform="matrix(0.48706333973128596 0 0 -0.48706333973128596 -30.956644748335634 34.81200682015694)"  >
<path style="stroke: none; stroke-width: 1; stroke-dasharray: none; stroke-linecap: butt; stroke-dashoffset: 0; stroke-linejoin: miter; stroke-miterlimit: 10; fill: rgb(255,255,255); fill-rule: nonzero; opacity: 1;"  paint-order="stroke"  transform=" translate(-1000.2116034530043, -1420.5200532258966)" d="m 1239.9 1374.45 c -0.1 0.25 -0.21 0.48 -0.32 0.72 c -11.43 26.65 -32.63 45.69 -56.23 61.4 c -14.69 9.79 -30.3 18.28 -45.09 26.53 c -41.13 21.02 -81.61 37.41 -111.29 48.47 c -10.56 3.94 -19.74 7.2 -27.107 9.76 c -12.355 4.28 -19.59 6.59 -19.511 6.77 c 0.019 0.08 -221.465 66.55 -221.465 66.55 l 80.945 -67.72 c 16.984 -14.09 33.477 -27.76 48.606 -40.3 c 30.261 -25.1 55.117 -45.65 67.539 -55.91 c 45.903 -37.85 74.063 -56.76 116.363 -83.6 c -34.21 36.6 -58.02 60.77 -103.719 98.86 c -12.371 10.32 -37.187 30.92 -67.441 56.02 c -15.125 12.54 -31.621 26.22 -48.602 40.3 l -7.93 6.57 c 71.551 -19.61 129.375 -39.48 129.305 -39.55 c -0.351 -0.46 77.137 -23.99 155.067 -63.89 c 37.55 -19.89 79.76 -45.95 91.93 -77.25 c 4.34 -13.83 -1.44 -31.46 -6.87 -43.49 c -5.74 -12.3 -12.89 -20.73 -18 -25.91 c -40.82 -35.68 -77.13 -42.33 -125.45 -49.62 c 24.8 -3.89 46.46 -3.6 69.03 0.35 c 22.11 4.6 47.08 12.34 70.52 35.33 c 11 12.83 38.28 40.77 29.72 89.61" stroke-linecap="round" />
</g>
</g>
</svg>